<svg xmlns="http://www.w3.org/2000/svg" viewBox="0 0 23.364 17.374">
  <defs>
    <style>
      .cls-1 {
        fill: #b2b2b2;
      }
    </style>
  </defs>
  <g id="Group_212" data-name="Group 212" transform="translate(-1706.258 -52.047)">
    <g id="logout" transform="translate(1729.622 111.72) rotate(180)">
      <path id="XMLID_4_" class="cls-1" d="M3.626,110.31h12.3a1.062,1.062,0,0,0,0-2.124H3.626L5,106.813a1.062,1.062,0,0,0-1.5-1.5L.311,108.5c-.025.025-.048.05-.07.077l-.015.02c-.016.021-.032.041-.047.063l-.012.02c-.015.023-.029.046-.042.07l-.007.015c-.013.026-.026.052-.038.08l0,.01c-.012.029-.022.058-.031.087,0,0,0,.008,0,.011-.009.029-.016.059-.022.089,0,.009,0,.018,0,.027,0,.025-.009.05-.011.076a1.047,1.047,0,0,0,0,.212c0,.026.007.051.011.076,0,.009,0,.018,0,.026.006.031.014.06.023.09l0,.011c.009.03.02.059.032.088l0,.01c.011.027.024.054.038.08l.007.014c.013.024.027.047.042.07l.011.019c.015.022.031.043.047.063l.015.02c.022.027.045.053.07.077L3.5,113.185a1.062,1.062,0,0,0,1.5-1.5Z" transform="translate(0 -58.262)"/>
      <path id="XMLID_5_" class="cls-1" d="M110.24,42.3a8.681,8.681,0,0,0-7.215,3.847,1.062,1.062,0,0,0,1.763,1.185,6.563,6.563,0,1,1,.009,7.324,1.062,1.062,0,0,0-1.76,1.189,8.687,8.687,0,1,0,7.2-13.545Z" transform="translate(-95.564)"/>
    </g>
  </g>
</svg>
