<?xml version="1.0" encoding="utf-8"?>
<!-- Generator: Adobe Illustrator 21.1.0, SVG Export Plug-In . SVG Version: 6.00 Build 0)  -->
<svg version="1.1" id="Layer_1" xmlns="http://www.w3.org/2000/svg" xmlns:xlink="http://www.w3.org/1999/xlink" x="0px" y="0px"
	 viewBox="0 0 1000 260.4" style="enable-background:new 0 0 1000 260.4;" xml:space="preserve">
<style type="text/css">
	.st0{fill:#0A3E60;}
	.st1{fill:#DFB63E;}
</style>
<g>
	<g>
		<path class="st0" d="M29.9,25h32.1v30.5H29.9V25z M29.9,80.7h32.1v146H29.9V80.7z"/>
		<path class="st0" d="M111.1,80.7h30.5v21.5l0.6,0.6c9.6-16.1,26.3-26,45.5-26c31.7,0,51.6,17,51.6,49.7v100.3h-32.1v-91.8
			c-0.6-22.8-9.6-32.7-28.5-32.7c-21.5,0-35.3,17-35.3,38.4v86.1h-32.1V80.7H111.1z"/>
		<path class="st0" d="M496.8,162c0,22.8,12.4,43.2,39.3,43.2c18.6,0,30-8.1,35.6-24.3h30.5c-7.1,32-34.2,49.7-66.2,49.7
			c-45.8,0-71.4-32-71.4-76.8c0-41.6,27-77.1,70.7-77.1c46.1,0,74.3,41.6,68.9,85.4H496.8V162z M572,140.9
			c-1.2-20.4-15-38.7-36.8-38.7c-22.2,0-37.5,17-38.4,38.7H572z"/>
		<path class="st0" d="M667,179.9c1.7,18.6,15.8,25.4,33,25.4c12.2,0,33.3-2.5,32.4-19.2c-0.9-17-24.3-18.9-47.7-24.3
			c-23.7-5.1-46.8-13.5-46.8-43.2c0-32,34.5-41.9,61.1-41.9c30,0,57,12.4,61.1,44.9h-33.7c-2.8-15.3-15.6-19.5-29.7-19.5
			c-9.3,0-26.6,2.3-26.6,15c0,15.8,23.7,18,47.4,23.4c23.4,5.4,47.1,13.8,47.1,42.6c0,34.8-35,47.4-65.3,47.4
			c-36.8,0-64.1-16.4-64.7-50.9H667V179.9z"/>
		<path class="st0" d="M788.4,80.7h24.3V36.9h32.1v43.8h29.1v24h-29.1v77.9c0,13.2,1.2,20.1,15.6,20.1c4.5,0,9,0,13.5-1.2v24.9
			c-7.1,0.6-13.8,1.7-20.9,1.7c-33.6,0-39.8-12.9-40.4-37.2v-86.1h-24.3V80.7H788.4z"/>
	</g>
</g>
<g>
	<path class="st1" d="M910.4,219v-14h9.3v-0.4c-6.5-4.4-11.1-9.9-11.1-20.5c0-8.1,3.5-15.7,11.1-18.6c-6.8-4.9-11.1-11.2-11.1-20.9
		c0-14.1,6.3-22.2,22.4-22.2H977V137h-39c-10.6,0-17.9,0.6-17.9,12.1c0,9.9,6.5,14.1,17.7,14.1h39v14.7h-42.6
		c-9.2,0-14.1,2.9-14.1,11.8c0,7.6,6.3,14.5,17.3,14.5H977v14.7h-66.6V219z"/>
	<path class="st1" d="M947.5,85.9c10.5,0,19.8-5.7,19.8-17.9c0-8.4-3.8-13.7-11.1-16.3v-14c14.5,3.2,22.7,15.6,22.7,30.1
		c0,20.9-14.5,32.6-35,32.6c-18.9,0-35.2-12.4-35.2-32.3c0-20.9,18.9-33.9,39-31.4v49.1H947.5z M937.9,51.6
		c-9.3,0.6-17.6,6.8-17.6,16.7c0,10.2,7.7,17.2,17.6,17.6V51.6z"/>
</g>
<g>
	
		<ellipse transform="matrix(0.8213 -0.5705 0.5705 0.8213 -13.192 221.9474)" class="st1" cx="347.7" cy="132" rx="29.4" ry="40.4"/>
	<path class="st1" d="M443.6,110.3c-6.4,30.5-15.3,55.5-26.5,73.9c-8.3,13.7-17.9,23.7-28.6,30.8c-33.7,18.8-57.7,5.7-64.3,1.3
		c-1.3-0.9-2.8-1.7-4.2-2.6c-3.1-1.9-6.3-4.7-9.2-7.3c-11.2-9.7-28.1-29.7-37.7-51.3c-0.7-1.7-1.2-3.5-1.2-5.4l0,0
		c0-15.7,20.6-21.4,28.8-8c1.9,3.1,3.6,5.8,5.2,8.1c18.5,27.2,36.6,41,48.3,40.4c13.1-0.7,24.3-7,34.2-23.1
		c9.2-15.1,16.7-36.1,22.2-63c4.2-20.1,6.7-40.4,8-56.9c0.7-8.6,8-15.3,16.6-15.3l0,0c9.7,0,17.4,8.4,16.6,18.2
		C450.7,67.9,448.1,89,443.6,110.3z"/>
</g>
</svg>
