<svg xmlns="http://www.w3.org/2000/svg" viewBox="0 0 32.017 23.146">
  <defs>
    <style>
      .cls-1 {
        fill: #74ba43;
      }
    </style>
  </defs>
  <path id="Path_83" data-name="Path 83" class="cls-1" d="M32.017,71.527v9.692s-2.074.409-2.5.462a2.965,2.965,0,0,1-2.735-.447c-1.5-1.434-6.812-6.72-6.812-6.72a2.021,2.021,0,0,0-2.388-.122c-1.351.712-3.353,1.755-4.19,2.162A1.925,1.925,0,0,1,10.5,75.044a1.968,1.968,0,0,1,1.2-1.718c1.907-1.156,5.927-3.413,7.6-4.3,1.018-.541,1.751-.588,3.148.589,1.721,1.447,3.252,2.766,3.252,2.766a1.591,1.591,0,0,0,1.3.249C28.949,72.214,32.017,71.527,32.017,71.527ZM10.859,87.949a1.693,1.693,0,0,0-2.03-2.341,1.746,1.746,0,0,0-.369-1.724,1.787,1.787,0,0,0-1.708-.432,1.745,1.745,0,0,0-.37-1.722,1.929,1.929,0,0,0-2.7.071c-.79.758-1.3,2.13-.591,2.938s1.512.315,2.128.174c-.171.611-.685,1.18-.053,1.98s1.512.315,2.129.176c-.172.609-.663,1.235-.055,1.977s1.619.348,2.283.141c-.256.659-.8,1.369-.1,2.165s2.33.431,3.124-.327a1.894,1.894,0,0,0,.171-2.677A1.8,1.8,0,0,0,10.859,87.949Zm14.493-5.042c-5.742-5.742-3.041-3.04-6.131-6.136a2.013,2.013,0,0,0-2.153-.387c-.859.376-1.965.89-2.8,1.281a4.616,4.616,0,0,1-1.882.626A3.192,3.192,0,0,1,10.7,72.382c1.276-.883,4.213-2.445,4.213-2.445A3.686,3.686,0,0,0,12.06,68.8c-1.959,0-6.053,2.682-6.053,2.682a3.2,3.2,0,0,1-2.817.074L0,70.448v11.09s.911.264,1.73.6a3.647,3.647,0,0,1,.9-1.416,3.53,3.53,0,0,1,4.845-.035,3.057,3.057,0,0,1,.765,1.358,3.094,3.094,0,0,1,1.311.8,3.051,3.051,0,0,1,.766,1.356,3.119,3.119,0,0,1,2.121,2.286,3.139,3.139,0,0,1,1.368.82,3.227,3.227,0,0,1,.846,2.8,0,0,0,0,1,0,0c.012.016.46.515.739.8a1.407,1.407,0,0,0,1.99-1.99c-.02-.02-1.975-2.065-1.818-2.223s2.647,2.435,2.694,2.482a1.407,1.407,0,0,0,1.989-1.989c-.027-.026-.139-.133-.181-.176,0,0-2.47-2.2-2.282-2.388s3.258,2.674,3.263,2.674a1.389,1.389,0,0,0,2-1.921c-.01-.029-2.338-2.463-2.156-2.646s2.488,2.187,2.493,2.192a1.407,1.407,0,1,0,1.989-1.992Z" transform="translate(0 -68.657)"/>
</svg>
